<svg xmlns="http://www.w3.org/2000/svg" viewBox="0 0 64 64" role="img" aria-label="PanShow">
  <rect width="64" height="64" rx="14" fill="#17201b"/>
  <path d="M12 23c0-4.4 3.6-8 8-8h10l5 6h9c4.4 0 8 3.6 8 8v3H12v-9Z" fill="#e1f0ff"/>
  <path d="M10 28c0-4.4 3.6-8 8-8h28c4.4 0 8 3.6 8 8v14c0 4.4-3.6 8-8 8H18c-4.4 0-8-3.6-8-8V28Z" fill="#1890ff"/>
  <path d="M21 35c3.2-5.1 6.9-7.6 11-7.6s7.8 2.5 11 7.6c-3.2 5.1-6.9 7.6-11 7.6s-7.8-2.5-11-7.6Z" fill="#ffffff"/>
  <circle cx="32" cy="35" r="4.4" fill="#17201b"/>
</svg>